<svg width="277" height="252" viewBox="0 0 277 252" fill="none" xmlns="http://www.w3.org/2000/svg">
<path d="M179.959 43.06C169.18 57.1847 149.496 69.7203 137.779 64.6001C133.327 62.658 136.373 60.7158 139.654 57.0081C141.294 55.2425 142.466 52.7707 144.575 50.2989C147.855 46.4146 150.433 45.0021 153.714 40.4116C155.354 38.2929 156.291 35.6445 157.932 33.5258C159.572 31.4071 161.212 29.2884 162.853 27.1697C166.368 22.7557 167.539 22.9323 169.414 18.5183C170.586 15.8699 171.757 14.634 172.929 12.6919C174.335 10.3966 175.273 7.04201 176.913 4.92331C178.319 3.33428 179.725 2.45149 183.709 3.6874C195.425 8.98416 190.739 28.9353 179.959 43.06ZM128.406 22.9323C117.626 37.057 113.643 56.3019 126.297 61.7752C130.749 63.7173 131.921 60.8924 134.264 56.8316C135.436 54.8894 137.31 52.7707 139.185 50.1223C141.997 45.8849 142.231 43.5897 145.746 39.1757C147.387 37.057 149.964 34.9383 151.37 32.9961C153.011 30.8774 154.417 28.7587 156.057 26.4635C159.338 22.0495 158.4 21.3433 162.618 17.8121C165.196 15.6934 165.899 14.4575 167.539 12.6919C169.414 10.5732 172.226 8.10137 173.632 5.8061C174.57 4.04052 175.741 2.98116 172.226 1.21558C160.275 -4.08118 138.951 8.80759 128.406 22.9323ZM92.7869 44.4725C89.9748 43.9428 89.0375 44.8256 88.3345 45.8849C87.3972 47.4739 87.3972 49.9458 86.9285 51.7114C86.4598 53.1238 85.7568 54.0066 85.5225 55.9488C85.0538 59.1268 84.1165 59.1268 82.4762 62.4814C81.7732 64.0705 80.8358 65.836 80.1328 67.4251C79.4298 69.0141 79.1955 70.9562 78.4925 72.5453C77.0865 75.8999 75.4461 77.1358 73.8058 80.1373C72.6341 82.0794 72.3998 83.845 71.6968 85.2575C70.0564 88.0824 68.1818 89.848 71.6968 90.7308C80.6015 93.0261 92.0839 82.6091 97.2392 71.6625C101.692 61.069 101.692 46.9443 92.7869 44.4725ZM57.6367 63.0111C52.7157 73.7812 53.1844 87.5528 62.7921 90.0246C66.0728 90.9074 66.5414 88.7887 67.4788 85.7872C67.9474 84.3747 68.8848 82.6091 69.8221 80.667C70.9938 77.4889 70.7594 75.8999 72.3998 72.5453C73.1028 70.9562 74.5088 69.1907 75.2118 67.6016C75.9148 66.0126 76.6178 64.4236 77.3208 62.658C78.7268 59.3034 78.0238 58.7737 80.3671 56.1253C81.7731 54.5363 82.0075 53.4769 82.7105 52.0645C83.6478 50.4754 85.0538 48.3567 85.7568 46.7677C86.2255 45.5318 86.6942 44.649 84.1165 43.5897C75.2118 41.2944 62.5577 52.241 57.6367 63.0111ZM126.297 73.4281C123.016 74.4874 123.016 75.8999 123.485 77.4889C124.188 79.6076 126.531 81.9029 127.937 83.845C128.874 85.6106 129.343 86.8465 130.983 88.7887C133.795 92.1433 132.858 92.673 134.733 96.9104C135.67 99.0291 136.373 100.971 137.31 102.913C138.248 104.856 139.888 106.974 140.825 108.916C142.934 112.977 142.7 115.096 144.106 118.98C145.043 121.452 146.684 123.394 147.152 125.16C148.324 128.867 148.558 131.516 152.542 130.457C163.556 127.632 164.024 110.682 157.932 97.44C151.839 84.1981 137.31 70.6031 126.297 73.4281ZM111.065 111.388C117.392 124.63 131.686 137.695 143.637 134.517C147.855 133.458 145.981 131.339 143.872 127.808C142.934 126.043 142.231 123.924 140.825 121.629C138.716 117.921 136.842 116.332 135.201 112.271C134.264 110.152 134.03 107.857 133.092 105.915C132.155 103.973 131.218 102.031 130.046 99.9119C127.937 95.851 127 95.851 126.297 91.7902C125.828 89.3183 125.125 88.259 124.656 86.4934C123.953 84.3747 123.25 81.5498 122.079 79.6076C121.141 78.1952 120.907 76.9592 117.158 77.6655C106.144 80.3138 104.972 98.1463 111.065 111.388Z" fill="black"/>
<path d="M37.4473 169.661H1.16016C0.515626 169.661 0 170.214 0 170.766V250.61C0 251.224 0.515626 251.716 1.16016 251.716H37.4473C38.0919 251.716 38.6075 251.224 38.6075 250.61V170.766C38.6075 170.459 38.4786 170.214 38.2852 169.968C38.0274 169.784 37.7051 169.661 37.4473 169.661ZM157.5 109.716C153 114.821 148 109.716 157.5 109.716C158.854 110.821 156.096 111.426 155 112.716C153.84 114.005 155 111.216 155 111.216L157.5 109.716ZM69.1367 69.4265C67.9766 68.1367 69.0997 69.9245 70.4532 68.8804C71.8067 67.8363 70.041 63.9258 71.1367 65.2156L70.4532 69.4265C71.6134 70.7162 72.4902 68.6715 71.1367 69.7156C69.7832 70.8211 71.5489 70.1702 70.4532 68.8804L69.1367 69.4265ZM116.016 97.9858C116.016 93.9322 116.016 91.5369 116.016 95.5905C116.016 97.9858 116.016 99.6441 116.016 95.5905V97.9858ZM146.137 95.5905C148.137 95.2343 147.361 96.3889 146.137 95.5905L148.137 95.2343C148.137 97.9858 146.137 95.5905 146.137 95.5905L148.137 95.2343C146.654 95.2343 146.137 95.5905 146.137 95.5905L148.137 95.2343C149.297 94.4359 146.137 95.5905 146.137 95.5905ZM79.5353 77.7178L82.3713 82.3241C80.1154 82.3241 78.3107 80.0516 79.5353 77.7178ZM59.5 65.2155C64.5177 55.7154 64.5177 48.2154 59.5 65.2155C70 53.7154 61.3047 69.2155 59.5 69.2155V65.2155C59.5 65.2155 64.5177 57.7155 59.5 69.2155V65.2155ZM123.75 193.675C119.561 194.044 118.916 187.963 123.17 187.595L185.368 181.822C189.364 176.11 189.557 172.179 186.786 169.661C183.112 166.344 175.184 164.502 164.42 163.765L99.7736 159.035L64.5177 178.689C64.0665 178.996 63.4864 179.119 62.9064 179.119L45.0528 179.181V242.994L69.0939 241.643H69.2872L160.102 241.704L269.286 169.292C276.827 164.317 280.436 158.483 272.637 154.92C268.19 152.894 261.616 152.709 256.137 155.289L188.59 187.411C188.139 187.595 187.752 187.718 187.237 187.718L123.75 193.675Z" fill="black"/>
</svg>
